<svg width="50" height="50" viewBox="0 0 50 50" fill="none" xmlns="http://www.w3.org/2000/svg">
<g clip-path="url(#clip0_22_308)">
<path d="M36.3228 21.6446V12.1822C36.3228 11.9114 36.1977 11.6611 36.0207 11.4632L25.412 0.323105C25.214 0.114822 24.9325 0 24.6514 0H7.83161C4.72644 0 2.24613 2.5322 2.24613 5.63774V37.4428C2.24613 40.5483 4.72644 43.0389 7.83161 43.0389H21.1083C23.6195 47.2073 28.1842 50 33.384 50C41.2831 50 47.7337 43.5806 47.7337 35.6712C47.7444 28.7621 42.7838 22.9889 36.3228 21.6446ZM25.6935 3.65791L32.811 11.1504H28.1945C26.8189 11.1504 25.6935 10.0147 25.6935 8.63915V3.65791ZM7.83161 40.9546C5.88306 40.9546 4.33048 39.3913 4.33048 37.4428V5.63774C4.33048 3.67851 5.88306 2.08435 7.83161 2.08435H23.6092V8.63915C23.6092 11.1713 25.6623 13.2347 28.1945 13.2347H34.2385V21.3734C33.926 21.3631 33.6758 21.3318 33.405 21.3318C29.768 21.3318 26.4229 22.7284 23.901 24.9168H10.6663C10.093 24.9168 9.62413 25.3857 9.62413 25.9586C9.62413 26.532 10.093 27.0008 10.6663 27.0008H21.9628C21.2227 28.043 20.6078 29.0852 20.1287 30.2315H10.6663C10.093 30.2315 9.62413 30.7003 9.62413 31.2737C9.62413 31.8466 10.093 32.3158 10.6663 32.3158H19.4512C19.1906 33.358 19.0552 34.5146 19.0552 35.6712C19.0552 37.5469 19.4199 39.402 20.0764 40.9653H7.83161V40.9546ZM33.3947 47.9263C26.6419 47.9263 21.1499 42.4343 21.1499 35.6815C21.1499 28.9288 26.6312 23.4367 33.3947 23.4367C40.1577 23.4367 45.6391 28.9288 45.6391 35.6815C45.6391 42.4343 40.1474 47.9263 33.3947 47.9263Z" fill="white"/>
<path d="M10.6663 21.78H21.2227C21.7961 21.78 22.2649 21.3108 22.2649 20.7379C22.2649 20.1645 21.7961 19.6957 21.2227 19.6957H10.6663C10.0929 19.6957 9.62412 20.1645 9.62412 20.7379C9.62412 21.3108 10.0929 21.78 10.6663 21.78Z" fill="white"/>
<path d="M39.0637 30.992L31.1852 38.2033L27.3296 34.014C26.944 33.5868 26.2768 33.5662 25.8602 33.9515C25.433 34.3371 25.412 35.0043 25.7977 35.4209L30.3619 40.3708C30.5702 40.5898 30.8517 40.7046 31.1333 40.7046C31.3831 40.7046 31.6334 40.6108 31.8417 40.4334L40.4808 32.5137C40.9081 32.1281 40.9393 31.4609 40.5434 31.0443C40.1474 30.6274 39.4909 30.5961 39.0637 30.992Z" fill="white"/>
</g>
<defs>
<clipPath id="clip0_22_308">
<rect width="50" height="50" fill="white"/>
</clipPath>
</defs>
</svg>
