<svg width="46" height="46" viewBox="0 0 46 46" fill="none" xmlns="http://www.w3.org/2000/svg">
<g id="stack 1" clip-path="url(#clip0_22_377)">
<path id="Vector" d="M31.625 19.1667H14.375C13.846 19.1667 13.4167 18.7373 13.4167 18.2083V0.958333C13.4167 0.429333 13.846 0 14.375 0H31.625C32.154 0 32.5833 0.429333 32.5833 0.958333V18.2083C32.5833 18.7373 32.154 19.1667 31.625 19.1667ZM15.3334 17.25H30.6667V1.91667H15.3334V17.25Z" fill="white"/>
<path id="Vector_2" d="M25.875 7.66667H20.125C19.596 7.66667 19.1667 7.23733 19.1667 6.70833V0.958333C19.1667 0.429333 19.596 0 20.125 0H25.875C26.404 0 26.8334 0.429333 26.8334 0.958333V6.70833C26.8334 7.23733 26.404 7.66667 25.875 7.66667ZM21.0834 5.75H24.9167V1.91667H21.0834V5.75Z" fill="white"/>
<path id="Vector_3" d="M23 36.4167H4.79165C4.26265 36.4167 3.83331 35.9873 3.83331 35.4583V18.2083C3.83331 17.6793 4.26265 17.25 4.79165 17.25H23C23.529 17.25 23.9583 17.6793 23.9583 18.2083V35.4583C23.9583 35.9873 23.529 36.4167 23 36.4167ZM5.74998 34.5H22.0417V19.1667H5.74998V34.5Z" fill="white"/>
<path id="Vector_4" d="M16.2916 24.9167H10.5416C10.0126 24.9167 9.58331 24.4873 9.58331 23.9583V18.2083C9.58331 17.6793 10.0126 17.25 10.5416 17.25H16.2916C16.8206 17.25 17.25 17.6793 17.25 18.2083V23.9583C17.25 24.4873 16.8206 24.9167 16.2916 24.9167ZM11.5 23H15.3333V19.1667H11.5V23Z" fill="white"/>
<path id="Vector_5" d="M41.2084 36.4167H23C22.471 36.4167 22.0417 35.9873 22.0417 35.4583V18.2083C22.0417 17.6793 22.471 17.25 23 17.25H41.2084C41.7374 17.25 42.1667 17.6793 42.1667 18.2083V35.4583C42.1667 35.9873 41.7374 36.4167 41.2084 36.4167ZM23.9584 34.5H40.25V19.1667H23.9584V34.5Z" fill="white"/>
<path id="Vector_6" d="M35.4583 24.9167H29.7083C29.1793 24.9167 28.75 24.4873 28.75 23.9583V18.2083C28.75 17.6793 29.1793 17.25 29.7083 17.25H35.4583C35.9873 17.25 36.4167 17.6793 36.4167 18.2083V23.9583C36.4167 24.4873 35.9873 24.9167 35.4583 24.9167ZM30.6667 23H34.5V19.1667H30.6667V23Z" fill="white"/>
<path id="Vector_7" d="M45.0417 46H37.375C36.846 46 36.4167 45.5707 36.4167 45.0417V42.1667H28.75V45.0417C28.75 45.5707 28.3207 46 27.7917 46H18.2083C17.6793 46 17.25 45.5707 17.25 45.0417V42.1667H9.58333V45.0417C9.58333 45.5707 9.154 46 8.625 46H0.958333C0.429333 46 0 45.5707 0 45.0417V35.4583C0 34.9293 0.429333 34.5 0.958333 34.5H45.0417C45.5707 34.5 46 34.9293 46 35.4583V45.0417C46 45.5707 45.5707 46 45.0417 46ZM38.3333 44.0833H44.0833V36.4167H1.91667V44.0833H7.66667V41.2083C7.66667 40.6793 8.096 40.25 8.625 40.25H18.2083C18.7373 40.25 19.1667 40.6793 19.1667 41.2083V44.0833H26.8333V41.2083C26.8333 40.6793 27.2627 40.25 27.7917 40.25H37.375C37.904 40.25 38.3333 40.6793 38.3333 41.2083V44.0833Z" fill="white"/>
</g>
<defs>
<clipPath id="clip0_22_377">
<rect width="46" height="46" fill="white"/>
</clipPath>
</defs>
</svg>
