<svg width="55" height="55" viewBox="0 0 55 55" fill="none" xmlns="http://www.w3.org/2000/svg">
<g id="magnifying-glass 1">
<path id="Vector" d="M31.3274 15.0168C29.911 13.6005 27.6184 13.6002 26.2017 15.0168L20.298 20.9206L18.8238 19.4466C17.4131 18.0359 15.126 18.0311 13.7096 19.4473C12.2997 20.8573 12.2997 23.1526 13.7096 24.5626L19.6158 30.4708C20.0466 30.9018 20.7226 30.8886 21.1399 30.4659L31.3439 20.126C32.739 18.7131 32.7315 16.421 31.3274 15.0168ZM29.8149 18.6168L20.3705 28.1834L15.2288 23.0417C14.6564 22.4693 14.6564 21.538 15.2288 20.9656C15.8022 20.3922 16.7309 20.3918 17.3047 20.9656L19.5383 23.1994C19.9576 23.6186 20.638 23.6188 21.0575 23.1994L27.7207 16.536C28.2974 15.9591 29.2314 15.959 29.8082 16.536C30.3801 17.1079 30.3831 18.0414 29.8149 18.6168Z" fill="white"/>
<path id="Vector_2" d="M48.456 40.2265L37.9342 31.2051C41.9094 24.2685 40.7652 15.4899 35.0823 9.80676C28.1393 2.86409 16.9016 2.86333 9.9579 9.80687C3.01522 16.7497 3.01415 27.988 9.9579 34.9318C15.7725 40.7469 24.5223 41.6473 31.2536 37.8409L39.9184 48.5314C42.1472 51.2811 46.2743 51.5121 48.7921 48.9944C51.2525 46.5339 51.0975 42.4911 48.456 40.2265ZM11.4771 33.4118C5.37399 27.3088 5.37292 17.4299 11.4771 11.3257C17.58 5.22275 27.4591 5.22178 33.563 11.3257C40.5167 18.2796 39.4168 30.1013 30.9226 35.5357C30.9223 35.5358 30.9221 35.536 30.9219 35.5361C24.9557 39.3514 16.8267 38.7618 11.4771 33.4118ZM47.2728 47.475C45.6665 49.0815 43.0207 48.9468 41.5873 47.1784L33.0671 36.6663C34.4866 35.6149 35.738 34.361 36.7441 33.0146L47.0577 41.8575C48.7435 43.303 48.8616 45.8865 47.2728 47.475Z" fill="white"/>
</g>
</svg>
