<svg width="63" height="63" viewBox="0 0 63 63" fill="none" xmlns="http://www.w3.org/2000/svg">
<g id="delivery-truck 1" clip-path="url(#clip0_22_332)">
<path id="Vector" d="M54.0894 48.9405C53.0218 48.9413 51.978 48.6254 51.0899 48.0329C50.2019 47.4403 49.5095 46.5977 49.1004 45.6116C48.6913 44.6255 48.5839 43.5402 48.7917 42.493C48.9995 41.4458 49.5132 40.4838 50.2678 39.7286C51.0225 38.9734 51.9841 38.459 53.0311 38.2505C54.0782 38.0419 55.1635 38.1486 56.1499 38.5569C57.1363 38.9653 57.9794 39.657 58.5726 40.5447C59.1658 41.4323 59.4825 42.4759 59.4825 43.5435C59.4818 44.974 58.9135 46.3457 57.9024 47.3576C56.8912 48.3695 55.5199 48.9388 54.0894 48.9405ZM54.0894 40.1152C53.4112 40.1145 52.748 40.3149 52.1837 40.6911C51.6194 41.0673 51.1794 41.6025 50.9193 42.2288C50.6592 42.8552 50.5908 43.5446 50.7226 44.2099C50.8545 44.8752 51.1807 45.4864 51.6599 45.9662C52.1392 46.4461 52.7501 46.773 53.4152 46.9056C54.0803 47.0382 54.7698 46.9705 55.3965 46.7112C56.0232 46.4518 56.5588 46.0124 56.9357 45.4485C57.3126 44.8847 57.5137 44.2217 57.5137 43.5435C57.5134 42.635 57.1526 41.7639 56.5106 41.1211C55.8686 40.4784 54.9979 40.1166 54.0894 40.1152Z" fill="white"/>
<path id="Vector_2" d="M25.6489 48.9405C24.5812 48.9415 23.5373 48.6259 22.6491 48.0335C21.7608 47.4411 21.0683 46.5985 20.659 45.6125C20.2497 44.6264 20.1421 43.5411 20.3497 42.4938C20.5574 41.4465 21.071 40.4844 21.8255 39.7291C22.5801 38.9738 23.5417 38.4592 24.5888 38.2506C25.6359 38.0419 26.7213 38.1485 27.7078 38.5568C28.6942 38.9651 29.5375 39.6569 30.1307 40.5445C30.724 41.4322 31.0406 42.4758 31.0406 43.5435C31.0396 44.9736 30.4714 46.345 29.4606 47.3567C28.4498 48.3685 27.079 48.938 25.6489 48.9405ZM25.6489 40.1152C24.9706 40.1142 24.3073 40.3144 23.7428 40.6904C23.1784 41.0665 22.7381 41.6016 22.4779 42.2279C22.2176 42.8542 22.1489 43.5437 22.2806 44.2091C22.4123 44.8744 22.7384 45.4858 23.2176 45.9658C23.6969 46.4457 24.3077 46.7728 24.9729 46.9055C25.638 47.0382 26.3276 46.9706 26.9544 46.7113C27.5811 46.452 28.1168 46.0125 28.4938 45.4487C28.8707 44.8848 29.0719 44.2217 29.0719 43.5435C29.0712 42.6354 28.7105 41.7646 28.0689 41.122C27.4272 40.4793 26.557 40.1173 25.6489 40.1152Z" fill="white"/>
<path id="Vector_3" d="M61.1901 44.5279H58.4981C58.2371 44.5279 57.9867 44.4242 57.8021 44.2396C57.6175 44.055 57.5138 43.8046 57.5138 43.5435C57.5138 43.2825 57.6175 43.0321 57.8021 42.8475C57.9867 42.6629 58.2371 42.5592 58.4981 42.5592H60.9118V37.3393C60.9112 36.6336 60.7305 35.9397 60.3868 35.3234L55.0581 25.7697C55.0126 25.6881 54.9461 25.6202 54.8656 25.5729C54.7851 25.5256 54.6934 25.5007 54.6 25.5006H47.338V42.5631H49.6821C49.9432 42.5631 50.1935 42.6668 50.3781 42.8514C50.5627 43.036 50.6665 43.2864 50.6665 43.5475C50.6665 43.8085 50.5627 44.0589 50.3781 44.2435C50.1935 44.4281 49.9432 44.5318 49.6821 44.5318H46.3536C46.0925 44.5318 45.8421 44.4281 45.6575 44.2435C45.4729 44.0589 45.3692 43.8085 45.3692 43.5475V24.5162C45.3692 24.2552 45.4729 24.0048 45.6575 23.8202C45.8421 23.6356 46.0925 23.5319 46.3536 23.5319H54.6C55.0441 23.5316 55.4802 23.65 55.8632 23.8748C56.2463 24.0995 56.5623 24.4225 56.7788 24.8102L62.1062 34.3652C62.6127 35.2747 62.8788 36.2984 62.8793 37.3393V42.8387C62.8786 43.2865 62.7004 43.7158 62.3838 44.0324C62.0671 44.349 61.6379 44.5272 61.1901 44.5279Z" fill="white"/>
<path id="Vector_4" d="M21.2402 44.5279H11.802C11.5409 44.5279 11.2906 44.4242 11.1059 44.2396C10.9213 44.055 10.8176 43.8046 10.8176 43.5435V35.973C10.8176 35.712 10.9213 35.4616 11.1059 35.277C11.2906 35.0924 11.5409 34.9886 11.802 34.9886C12.0631 34.9886 12.3135 35.0924 12.4981 35.277C12.6827 35.4616 12.7864 35.712 12.7864 35.973V42.5592H21.2402C21.5013 42.5592 21.7516 42.6629 21.9362 42.8475C22.1209 43.0321 22.2246 43.2825 22.2246 43.5435C22.2246 43.8046 22.1209 44.055 21.9362 44.2396C21.7516 44.4242 21.5013 44.5279 21.2402 44.5279Z" fill="white"/>
<path id="Vector_5" d="M11.802 32.4805C11.5409 32.4805 11.2906 32.3768 11.1059 32.1921C10.9213 32.0075 10.8176 31.7572 10.8176 31.4961V24.8864C10.8176 24.6253 10.9213 24.3749 11.1059 24.1903C11.2906 24.0057 11.5409 23.902 11.802 23.902C12.0631 23.902 12.3135 24.0057 12.4981 24.1903C12.6827 24.3749 12.7864 24.6253 12.7864 24.8864V31.5C12.7853 31.7604 12.6812 32.0098 12.4967 32.1935C12.3122 32.3773 12.0624 32.4805 11.802 32.4805Z" fill="white"/>
<path id="Vector_6" d="M46.3536 44.5278H30.0563C29.7952 44.5278 29.5448 44.4241 29.3602 44.2395C29.1756 44.0549 29.0719 43.8045 29.0719 43.5434C29.0719 43.2824 29.1756 43.032 29.3602 42.8474C29.5448 42.6628 29.7952 42.5591 30.0563 42.5591H45.3692V16.8065H12.7864V20.8608C12.7864 21.1219 12.6827 21.3723 12.4981 21.5569C12.3135 21.7415 12.0631 21.8452 11.802 21.8452C11.5409 21.8452 11.2906 21.7415 11.1059 21.5569C10.9213 21.3723 10.8176 21.1219 10.8176 20.8608V16.6254C10.8183 16.1513 11.0071 15.6968 11.3424 15.3617C11.6778 15.0265 12.1324 14.8381 12.6066 14.8378H45.5503C46.0242 14.8385 46.4785 15.027 46.8136 15.3621C47.1487 15.6972 47.3373 16.1515 47.338 16.6254V43.5434C47.338 43.8045 47.2342 44.0549 47.0496 44.2395C46.865 44.4241 46.6147 44.5278 46.3536 44.5278Z" fill="white"/>
<path id="Vector_7" d="M15.6936 36.9574H3.19989C2.93882 36.9574 2.68844 36.8537 2.50383 36.6691C2.31923 36.4845 2.21552 36.2341 2.21552 35.973C2.21552 35.712 2.31923 35.4616 2.50383 35.277C2.68844 35.0924 2.93882 34.9886 3.19989 34.9886H15.6936C15.9547 34.9886 16.205 35.0924 16.3896 35.277C16.5743 35.4616 16.678 35.712 16.678 35.973C16.678 36.2341 16.5743 36.4845 16.3896 36.6691C16.205 36.8537 15.9547 36.9574 15.6936 36.9574Z" fill="white"/>
<path id="Vector_8" d="M25.6489 32.4805H8.21497C7.95389 32.4805 7.70351 32.3767 7.51891 32.1921C7.3343 32.0075 7.23059 31.7572 7.23059 31.4961C7.23059 31.235 7.3343 30.9846 7.51891 30.8C7.70351 30.6154 7.95389 30.5117 8.21497 30.5117H25.6489C25.91 30.5117 26.1603 30.6154 26.345 30.8C26.5296 30.9846 26.6333 31.235 26.6333 31.4961C26.6333 31.7572 26.5296 32.0075 26.345 32.1921C26.1603 32.3767 25.91 32.4805 25.6489 32.4805Z" fill="white"/>
<path id="Vector_9" d="M7.67286 27.283H0.864929C0.603857 27.283 0.353477 27.1792 0.168871 26.9946C-0.0157352 26.81 -0.119446 26.5597 -0.119446 26.2986C-0.119446 26.0375 -0.0157352 25.7871 0.168871 25.6025C0.353477 25.4179 0.603857 25.3142 0.864929 25.3142H7.67286C7.93394 25.3142 8.18432 25.4179 8.36892 25.6025C8.55353 25.7871 8.65724 26.0375 8.65724 26.2986C8.65724 26.5597 8.55353 26.81 8.36892 26.9946C8.18432 27.1792 7.93394 27.283 7.67286 27.283Z" fill="white"/>
<path id="Vector_10" d="M18.589 21.8452H6.57172C6.31064 21.8452 6.06026 21.7415 5.87566 21.5569C5.69105 21.3723 5.58734 21.1219 5.58734 20.8608C5.58734 20.5998 5.69105 20.3494 5.87566 20.1648C6.06026 19.9802 6.31064 19.8765 6.57172 19.8765H18.589C18.85 19.8765 19.1004 19.9802 19.285 20.1648C19.4696 20.3494 19.5733 20.5998 19.5733 20.8608C19.5733 21.1219 19.4696 21.3723 19.285 21.5569C19.1004 21.7415 18.85 21.8452 18.589 21.8452Z" fill="white"/>
</g>
<defs>
<clipPath id="clip0_22_332">
<rect width="63" height="63" fill="white"/>
</clipPath>
</defs>
</svg>
