<svg width="50" height="50" viewBox="0 0 50 50" fill="none" xmlns="http://www.w3.org/2000/svg">
<g id="check-mark 1" clip-path="url(#clip0_22_317)">
<path id="Vector" d="M13.8016 38.2539L24.531 45.5693C24.825 45.7687 25.2107 45.7687 25.5043 45.5693L36.2371 38.2543C39.2507 36.1992 41.7091 31.563 41.7091 27.9185V12.5687C41.7066 12.2394 41.5173 11.9399 41.2212 11.7957L25.4017 4.02722C25.1619 3.90987 24.8814 3.90987 24.6417 4.02722L8.82041 11.7721C8.52305 11.916 8.33336 12.2154 8.33041 12.5456V27.9185C8.33041 31.563 10.7884 36.1992 13.8016 38.2539ZM10.0532 13.0827L25.0181 5.76009L39.9864 13.1054V27.9185C39.9864 30.9544 37.7778 35.1187 35.2668 36.8306L25.0231 43.815L14.774 36.8306C12.2634 35.1187 10.0532 30.9544 10.0532 27.9185V13.0827Z" fill="white"/>
<path id="Vector_2" d="M11.8008 41.1758L24.5272 49.8502C24.8221 50.05 25.2086 50.05 25.5034 49.8502L38.2375 41.1762C42.168 38.4965 45.2623 32.6729 45.2623 27.9185V10.3656C45.2564 10.0346 45.0642 9.73558 44.766 9.59216L25.4076 0.0878882C25.167 -0.0294588 24.8856 -0.0294588 24.645 0.0878882L5.27644 9.56608C4.97698 9.70866 4.78392 10.0081 4.77719 10.3396V27.9185C4.77719 32.6729 7.87069 38.4965 11.8008 41.1758ZM6.49996 10.8767L25.0202 1.82075L43.54 10.9019V27.9185C43.54 32.1623 40.7771 37.3605 37.268 39.7529L25.0269 48.0959L12.7753 39.7524C9.26708 37.3609 6.49996 32.1623 6.49996 27.9185V10.8767Z" fill="white"/>
<path id="Vector_3" d="M21.9839 32.9354C22.1458 33.0965 22.3658 33.1857 22.5942 33.1831H22.5963C22.8234 33.1861 23.043 33.0978 23.2053 32.9388L35.4439 20.7036C35.6058 20.5425 35.6967 20.3238 35.6967 20.0954C35.6967 19.867 35.6058 19.6483 35.4439 19.4872L33.0078 17.0519C32.6713 16.7154 32.1258 16.7154 31.7893 17.0519L22.611 26.2306L18.2654 21.8421C17.9306 21.504 17.3851 21.5014 17.0469 21.8362L14.5986 24.2606C14.4363 24.4216 14.3446 24.6404 14.3433 24.8687C14.3425 25.0959 14.432 25.3142 14.5927 25.4752L21.9839 32.9354ZM17.6471 23.6671L21.9961 28.0703C22.1559 28.2365 22.3755 28.3328 22.606 28.3374H22.6081C22.8381 28.3332 23.0568 28.2382 23.2171 28.0733L32.3988 18.8862L33.6168 20.1013L22.5992 31.1176L16.4232 24.8805L17.6471 23.6671Z" fill="white"/>
</g>
<defs>
<clipPath id="clip0_22_317">
<rect width="50" height="50" fill="white"/>
</clipPath>
</defs>
</svg>
