<svg width="24" height="24" viewBox="0 0 24 24" fill="none" xmlns="http://www.w3.org/2000/svg">
<g clip-path="url(#clip0_22_195)">
<path d="M23.353 4.10714C23.353 3.80267 23.1691 3.52832 22.8875 3.41259L12.2821 -0.944174C12.0993 -1.01926 11.8943 -1.01926 11.7115 -0.944174L1.10616 3.41259C0.824539 3.52827 0.640625 3.80267 0.640625 4.10714V17.8919C0.640625 18.1964 0.824492 18.4707 1.10616 18.5864L11.7115 22.9432C11.8924 23.0175 12.0956 23.0191 12.2812 22.9432C12.2903 22.9401 11.8887 23.1048 22.8875 18.5864C23.1691 18.4708 23.353 18.1964 23.353 17.8919V4.10714ZM11.9968 7.7153L8.08915 6.11001L16.534 2.42606L20.703 4.13872L11.9968 7.7153ZM2.14234 5.29049L5.51375 6.6755V10.583C5.51375 10.9976 5.84995 11.3338 6.26461 11.3338C6.67927 11.3338 7.01547 10.9976 7.01547 10.583V7.29243L11.246 9.03034V21.1284L2.14234 17.3886V5.29049ZM11.9968 0.562097L14.5998 1.63141L6.15489 5.31537L3.2906 4.13868L11.9968 0.562097ZM12.7477 9.03034L21.8513 5.29049V17.3886L12.7477 21.1284V9.03034Z" fill="#89C249"/>
</g>
<defs>
<clipPath id="clip0_22_195">
<rect width="24" height="24" fill="white" transform="translate(0 -0.000488281)"/>
</clipPath>
</defs>
</svg>
