<svg width="22" height="22" viewBox="0 0 22 22" fill="none" xmlns="http://www.w3.org/2000/svg">
<g clip-path="url(#clip0_22_164)">
<path d="M19.6429 2.35665H17.2857V0.785241C17.2857 0.351287 16.9339 -0.000488281 16.5 -0.000488281C16.066 -0.000488281 15.7143 0.351287 15.7143 0.785241V2.35665H6.28569V0.785241C6.28569 0.351287 5.93392 -0.000488281 5.50001 -0.000488281C5.0661 -0.000488281 4.71428 0.351287 4.71428 0.785241V2.35665H2.35714C1.05533 2.35665 0 3.41198 0 4.71379V19.6424C0 20.9442 1.05533 21.9995 2.35714 21.9995H19.6429C20.9447 21.9995 22 20.9442 22 19.6424V4.71379C22 3.41198 20.9447 2.35665 19.6429 2.35665ZM20.4285 19.6424C20.4285 20.0763 20.0768 20.4281 19.6428 20.4281H2.35714C1.92319 20.4281 1.57141 20.0763 1.57141 19.6424V9.42808H20.4285V19.6424ZM20.4285 7.85666H1.57141V4.71379C1.57141 4.27984 1.92319 3.92806 2.35714 3.92806H4.71428V5.49948C4.71428 5.93343 5.06606 6.28521 5.50001 6.28521C5.93396 6.28521 6.28574 5.93343 6.28574 5.49948V3.92806H15.7143V5.49948C15.7143 5.93343 16.0661 6.28521 16.5 6.28521C16.934 6.28521 17.2858 5.93343 17.2858 5.49948V3.92806H19.6429C20.0769 3.92806 20.4286 4.27984 20.4286 4.71379V7.85666H20.4285Z" fill="#89C249"/>
<path d="M6.28569 10.9995H4.71428C4.28033 10.9995 3.92855 11.3513 3.92855 11.7852C3.92855 12.2192 4.28033 12.571 4.71428 12.571H6.28569C6.71965 12.571 7.07142 12.2192 7.07142 11.7852C7.07142 11.3513 6.71965 10.9995 6.28569 10.9995Z" fill="#89C249"/>
<path d="M11.7857 10.9995H10.2143C9.78034 10.9995 9.42857 11.3513 9.42857 11.7852C9.42857 12.2192 9.78034 12.571 10.2143 12.571H11.7857C12.2197 12.571 12.5714 12.2192 12.5714 11.7852C12.5714 11.3513 12.2197 10.9995 11.7857 10.9995Z" fill="#89C249"/>
<path d="M17.2857 10.9995H15.7143C15.2804 10.9995 14.9286 11.3513 14.9286 11.7852C14.9286 12.2192 15.2804 12.571 15.7143 12.571H17.2857C17.7197 12.571 18.0714 12.2192 18.0714 11.7852C18.0714 11.3513 17.7196 10.9995 17.2857 10.9995Z" fill="#89C249"/>
<path d="M6.28569 14.1423H4.71428C4.28033 14.1423 3.92855 14.4941 3.92855 14.9281C3.92855 15.362 4.28033 15.7138 4.71428 15.7138H6.28569C6.71965 15.7138 7.07142 15.362 7.07142 14.9281C7.07142 14.4941 6.71965 14.1423 6.28569 14.1423Z" fill="#89C249"/>
<path d="M11.7857 14.1423H10.2143C9.78034 14.1423 9.42857 14.4941 9.42857 14.9281C9.42857 15.362 9.78034 15.7138 10.2143 15.7138H11.7857C12.2197 15.7138 12.5714 15.362 12.5714 14.9281C12.5714 14.4941 12.2197 14.1423 11.7857 14.1423Z" fill="#89C249"/>
<path d="M17.2857 14.1423H15.7143C15.2804 14.1423 14.9286 14.4941 14.9286 14.9281C14.9286 15.362 15.2804 15.7138 15.7143 15.7138H17.2857C17.7197 15.7138 18.0714 15.362 18.0714 14.9281C18.0714 14.4941 17.7196 14.1423 17.2857 14.1423Z" fill="#89C249"/>
<path d="M6.28569 17.2852H4.71428C4.28033 17.2852 3.92855 17.637 3.92855 18.0709C3.92855 18.5049 4.28033 18.8566 4.71428 18.8566H6.28569C6.71965 18.8566 7.07142 18.5049 7.07142 18.0709C7.07142 17.6369 6.71965 17.2852 6.28569 17.2852Z" fill="#89C249"/>
<path d="M11.7857 17.2852H10.2143C9.78034 17.2852 9.42857 17.637 9.42857 18.0709C9.42857 18.5049 9.78034 18.8567 10.2143 18.8567H11.7857C12.2197 18.8567 12.5714 18.5049 12.5714 18.0709C12.5714 17.637 12.2197 17.2852 11.7857 17.2852Z" fill="#89C249"/>
<path d="M17.2857 17.2852H15.7143C15.2804 17.2852 14.9286 17.637 14.9286 18.0709C14.9286 18.5049 15.2804 18.8567 15.7143 18.8567H17.2857C17.7197 18.8567 18.0714 18.5049 18.0714 18.0709C18.0714 17.637 17.7196 17.2852 17.2857 17.2852Z" fill="#89C249"/>
</g>
<defs>
<clipPath id="clip0_22_164">
<rect width="22" height="22" fill="white" transform="translate(0 -0.000488281)"/>
</clipPath>
</defs>
</svg>
