<svg width="34" height="33" viewBox="0 0 34 33" fill="none" xmlns="http://www.w3.org/2000/svg">
<g clip-path="url(#clip0_22_23)">
<path d="M17 33C26.3888 33 34 25.6127 34 16.5C34 7.3873 26.3888 0 17 0C7.61116 0 0 7.3873 0 16.5C0 25.6127 7.61116 33 17 33Z" fill="url(#paint0_linear_22_23)"/>
<path d="M20.4358 8.25H13.5642C12.2216 8.25172 10.9346 8.77013 9.98523 9.69155C9.03589 10.613 8.50178 11.8622 8.5 13.1653V19.8347C8.50178 21.1378 9.03589 22.387 9.98523 23.3084C10.9346 24.2299 12.2216 24.7483 13.5642 24.75H20.4358C21.7785 24.7488 23.066 24.2306 24.0154 23.3091C24.9649 22.3875 25.4988 21.138 25.5 19.8347V13.1653C25.4982 11.8622 24.9641 10.613 24.0148 9.69155C23.0654 8.77013 21.7784 8.25172 20.4358 8.25ZM23.7911 19.8347C23.7911 20.6984 23.4376 21.5268 22.8083 22.1375C22.1791 22.7482 21.3257 23.0913 20.4358 23.0913H13.5642C12.6743 23.0913 11.8209 22.7482 11.1917 22.1375C10.5624 21.5268 10.2089 20.6984 10.2089 19.8347V13.1653C10.2089 12.3016 10.5624 11.4732 11.1917 10.8625C11.8209 10.2518 12.6743 9.90868 13.5642 9.90868H20.4358C21.3257 9.90868 22.1791 10.2518 22.8083 10.8625C23.4376 11.4732 23.7911 12.3016 23.7911 13.1653V19.8347Z" fill="white"/>
<path d="M17 12.2339C16.13 12.2335 15.2795 12.4835 14.556 12.9523C13.8324 13.4212 13.2684 14.0878 12.9353 14.8678C12.6022 15.6478 12.5149 16.5062 12.6845 17.3344C12.8541 18.1625 13.273 18.9233 13.8882 19.5203C14.5033 20.1174 15.2871 20.5239 16.1404 20.6886C16.9936 20.8532 17.878 20.7685 18.6817 20.4452C19.4853 20.1218 20.1721 19.5744 20.6552 18.8722C21.1382 18.1699 21.3958 17.3444 21.3954 16.5C21.3942 15.3689 20.9307 14.2845 20.1067 13.4847C19.2827 12.6849 18.1654 12.235 17 12.2339ZM17 19.1053C16.4691 19.1053 15.9501 18.9525 15.5087 18.6662C15.0673 18.3799 14.7233 17.9731 14.5201 17.497C14.3169 17.021 14.2638 16.4971 14.3674 15.9917C14.4709 15.4864 14.7266 15.0222 15.102 14.6578C15.4774 14.2935 15.9556 14.0453 16.4763 13.9448C16.997 13.8443 17.5367 13.8959 18.0272 14.0931C18.5177 14.2902 18.9369 14.6242 19.2318 15.0526C19.5268 15.481 19.6842 15.9847 19.6842 16.5C19.6842 17.191 19.4014 17.8536 18.898 18.3422C18.3946 18.8308 17.7119 19.1053 17 19.1053Z" fill="white"/>
<path d="M21.4222 13.289C22.0226 13.289 22.5093 12.8166 22.5093 12.2338C22.5093 11.6511 22.0226 11.1787 21.4222 11.1787C20.8218 11.1787 20.3351 11.6511 20.3351 12.2338C20.3351 12.8166 20.8218 13.289 21.4222 13.289Z" fill="white"/>
</g>
<defs>
<linearGradient id="paint0_linear_22_23" x1="17" y1="32.848" x2="17" y2="2.23618" gradientUnits="userSpaceOnUse">
<stop stop-color="#E09B3D"/>
<stop offset="0.24" stop-color="#C74C4D"/>
<stop offset="0.65" stop-color="#C21975"/>
<stop offset="1" stop-color="#7024C4"/>
</linearGradient>
<clipPath id="clip0_22_23">
<rect width="34" height="33" fill="white"/>
</clipPath>
</defs>
</svg>
