<svg width="127" height="36" viewBox="0 0 127 36" fill="none" xmlns="http://www.w3.org/2000/svg">
<path fill-rule="evenodd" clip-rule="evenodd" d="M2.85275 10.6427V25.2121L9.83429 29.3208V32.6095L0.00668091 26.8472H0V8.83717L12.6436 1.66689L12.6002 1.64183L15.4212 0L18.8869 2.07108V2.17798V7.77156L22.3476 9.80423H22.386V9.82928L25.8701 11.8753V15.1707L22.386 13.1246V25.825L19.5383 27.6306V11.4511L16.0409 9.40003H16.0342V3.67951L15.4479 3.32542L2.85275 10.6427ZM30.3129 8.73695H30.3196V26.8422L15.5548 35.4155V35.4222L11.3943 32.9987V16.6338L9.3232 21.419L7.32895 16.8041V25.648L4.47621 24.0446V11.5329C5.56854 10.9266 6.77444 10.3721 7.63294 9.94286L9.50192 15.3277L11.396 7.77156L14.247 5.9911V31.3668L15.5532 32.1251L27.4652 25.2121V10.3654L20.4837 6.25667V2.96632L30.3129 8.73695Z" fill="white"/>
<path d="M38.6467 15.4528V1.04213H43.2164L45.9239 10.8714L48.5946 1.04213H53.1843V15.4545H50.3566L50.35 4.11033L47.377 15.4545H44.4424L41.4811 4.10866L41.4677 15.4528H38.6467ZM69.8315 15.4528H66.5361L65.235 12.1708H59.1805L57.9311 15.4528H54.6992L60.5567 1.04046H63.7819L69.8315 15.4528ZM64.2446 9.73398L62.1484 4.40596L60.1091 9.73398H64.2446ZM70.6516 10.7812L73.6246 10.4973C73.8016 11.451 74.1607 12.1441 74.7035 12.5867C75.253 13.0344 75.9846 13.2565 76.9066 13.2565C77.8853 13.2565 78.6236 13.0611 79.1163 12.6636C79.609 12.266 79.8612 11.8051 79.8612 11.2756C79.8612 10.9349 79.7543 10.6443 79.5455 10.4037C79.3434 10.1632 78.9777 9.95613 78.4532 9.78576C78.0991 9.66551 77.2924 9.45673 76.0297 9.15442C74.4012 8.76358 73.2655 8.28924 72.6074 7.72136C71.6788 6.92633 71.2195 5.96094 71.2195 4.81183C71.2195 4.08027 71.4399 3.39214 71.8692 2.74743C72.3051 2.1094 72.9298 1.62337 73.7498 1.28932C74.5699 0.948594 75.5487 0.784912 76.7112 0.784912C78.5985 0.784912 80.0182 1.18243 80.9719 1.98413C81.9256 2.78584 82.4233 3.85312 82.4751 5.19097L79.4203 5.29118C79.2883 4.54626 79.0094 4.01012 78.5868 3.68777C78.1643 3.35873 77.5195 3.19505 76.6744 3.19505C75.7975 3.19505 75.1094 3.37209 74.61 3.7195C74.2943 3.94665 74.1307 4.24395 74.1307 4.62142C74.1307 4.96215 74.2826 5.25277 74.585 5.49328C74.9641 5.80895 75.8978 6.13131 77.3759 6.46535C78.8524 6.79439 79.9447 7.1468 80.6529 7.50089C81.3661 7.85999 81.9156 8.34603 82.3198 8.96568C82.7173 9.58366 82.9194 10.3536 82.9194 11.2639C82.9194 12.084 82.6789 12.8606 82.1995 13.5805C81.7202 14.3004 81.0387 14.8365 80.1602 15.1906C79.2833 15.538 78.191 15.7151 76.8782 15.7151C74.9724 15.7151 73.5077 15.2992 72.4838 14.4524C71.46 13.6106 70.8537 12.3913 70.6516 10.7812ZM88.9021 15.4528V3.47732H84.4326V1.04213H96.4015V3.47899H91.957V15.4545H88.9021V15.4528ZM98.3773 15.4528V1.04213H109.544V3.47899H101.432V6.67914H108.977V9.116H101.432V13.0177H109.84V15.4545H98.3773V15.4528ZM112.436 15.4528V1.04213H118.849C120.459 1.04213 121.634 1.17407 122.365 1.43296C123.097 1.69185 123.685 2.15283 124.121 2.80923C124.563 3.47231 124.784 4.22892 124.784 5.0824C124.784 6.16805 124.45 7.05828 123.786 7.75978C123.123 8.46628 122.133 8.90889 120.813 9.09095C121.47 9.45673 122.013 9.86092 122.435 10.3035C122.865 10.7395 123.439 11.5211 124.166 12.6385L126.003 15.4545H122.36L120.175 12.3028C119.392 11.1854 118.856 10.4839 118.565 10.195C118.275 9.90602 117.972 9.70225 117.65 9.59536C117.321 9.48846 116.81 9.43835 116.11 9.43835H115.492V15.4545H112.436V15.4528ZM115.49 7.14012H117.744C119.202 7.14012 120.11 7.08334 120.478 6.96308C120.845 6.84282 121.127 6.64073 121.33 6.35011C121.538 6.06617 121.639 5.70039 121.639 5.27114C121.639 4.7851 121.507 4.39427 121.234 4.09029C120.962 3.79299 120.578 3.60425 120.085 3.52909C119.84 3.49736 119.1 3.47899 117.864 3.47899H115.49V7.14012ZM43.5137 35.1615V22.4477H38.5398V20.7558H50.4903V22.4477H45.5163V35.1615H43.5137ZM49.3345 35.1615L55.1235 20.7558H57.3131L63.4546 35.1615H61.1881L59.4393 30.7939H53.0891L51.4473 35.1615H49.3345ZM53.6771 29.2472H58.8163L57.2447 25.2521C56.772 24.0395 56.4112 23.0357 56.159 22.2473C55.9569 23.1877 55.6797 24.1096 55.3323 25.0182L53.6771 29.2472ZM64.4333 28.1482C64.4333 25.7615 65.1031 23.8942 66.4476 22.543C67.7921 21.1851 69.5275 20.517 71.6554 20.517C73.05 20.517 74.306 20.8326 75.4234 21.4707C76.5408 22.102 77.3926 22.9856 77.9805 24.1213C78.5668 25.2571 78.8641 26.5448 78.8641 27.9846C78.8641 29.4427 78.5551 30.7488 77.9354 31.8979C77.3174 33.0537 76.4456 33.9239 75.3148 34.5185C74.1791 35.1114 72.9531 35.402 71.647 35.402C70.2207 35.402 68.958 35.073 67.8339 34.4233C66.7165 33.7669 65.8714 32.8766 65.2901 31.7409C64.7173 30.6101 64.4333 29.4176 64.4333 28.1482ZM66.4977 28.1866C66.4977 29.917 66.9838 31.2866 67.9625 32.277C68.9346 33.2742 70.1589 33.7736 71.637 33.7736C73.1402 33.7736 74.3712 33.2742 75.3482 32.2653C76.3136 31.2615 76.7997 29.8285 76.7997 27.9795C76.7997 26.8121 76.5909 25.7899 76.175 24.918C75.7641 24.0462 75.1578 23.3647 74.3561 22.8853C73.5544 22.406 72.6642 22.1655 71.6671 22.1655C70.2524 22.1655 69.0415 22.6265 68.0243 23.5534C67.0038 24.4804 66.4977 26.0204 66.4977 28.1866Z" fill="white"/>
<rect x="83.6782" y="20.3767" width="42.2567" height="15.032" fill="#89C249"/>
<path d="M90.1716 31.5564C89.0784 31.5564 88.1673 31.2083 87.4385 30.5122C86.7096 29.8088 86.3452 28.906 86.3452 27.8038C86.3452 26.7016 86.7096 25.8025 87.4385 25.1063C88.1673 24.403 89.0784 24.0513 90.1716 24.0513C91.4398 24.0513 92.4164 24.5951 93.1015 25.6828L92.0083 26.2376C91.8261 25.9257 91.5673 25.6719 91.2321 25.4762C90.9041 25.2804 90.5506 25.1825 90.1716 25.1825C89.4501 25.1825 88.8488 25.429 88.3677 25.9221C87.894 26.4152 87.6571 27.0424 87.6571 27.8038C87.6571 28.5652 87.894 29.1925 88.3677 29.6856C88.8488 30.1787 89.4501 30.4252 90.1716 30.4252C90.5579 30.4252 90.915 30.3273 91.243 30.1315C91.571 29.9357 91.8261 29.6819 92.0083 29.3701L93.1015 29.9249C92.4019 31.0126 91.4252 31.5564 90.1716 31.5564Z" fill="white"/>
<path d="M100.631 31.4259H99.1774L98.6417 30.0336H95.2963L94.7606 31.4259H93.3066L96.1709 24.1709H97.7671L100.631 31.4259ZM98.2809 28.9133L96.969 25.4544L95.6571 28.9133H98.2809Z" fill="white"/>
<path d="M107.069 31.4259H105.593L103.975 28.7175H102.707V31.4259H101.428V24.1709H104.631C105.345 24.1709 105.921 24.3812 106.358 24.8018C106.796 25.2224 107.014 25.7698 107.014 26.4442C107.014 27.0533 106.847 27.5428 106.512 27.9126C106.176 28.2752 105.768 28.4963 105.287 28.5761L107.069 31.4259ZM104.456 27.5972C104.821 27.5972 105.119 27.492 105.353 27.2817C105.586 27.0715 105.703 26.7923 105.703 26.4442C105.703 26.0961 105.586 25.817 105.353 25.6067C105.119 25.3964 104.821 25.2912 104.456 25.2912H102.707V27.5972H104.456Z" fill="white"/>
<path d="M111.791 31.5673C110.713 31.5673 109.805 31.2192 109.069 30.5231C108.333 29.827 107.965 28.9205 107.965 27.8038C107.965 26.6871 108.333 25.7843 109.069 25.0955C109.805 24.3993 110.713 24.0513 111.791 24.0513C113.045 24.0513 114.025 24.5552 114.732 25.5632L113.683 26.1505C113.478 25.8677 113.209 25.6357 112.874 25.4544C112.546 25.2731 112.185 25.1825 111.791 25.1825C111.07 25.1825 110.468 25.429 109.987 25.9221C109.514 26.4152 109.277 27.0424 109.277 27.8038C109.277 28.5652 109.514 29.1961 109.987 29.6964C110.468 30.1895 111.07 30.4361 111.791 30.4361C112.134 30.4361 112.458 30.3708 112.764 30.2403C113.078 30.1098 113.329 29.9575 113.519 29.7835V28.6522H111.343V27.5319H114.798V30.2512C114.003 31.1286 113.001 31.5673 111.791 31.5673Z" fill="white"/>
<path d="M122.208 30.5013C121.508 31.2047 120.615 31.5564 119.529 31.5564C118.443 31.5564 117.55 31.2047 116.851 30.5013C116.151 29.7907 115.801 28.8915 115.801 27.8038C115.801 26.7161 116.151 25.8206 116.851 25.1172C117.55 24.4066 118.443 24.0513 119.529 24.0513C120.615 24.0513 121.508 24.4066 122.208 25.1172C122.907 25.8206 123.257 26.7161 123.257 27.8038C123.257 28.8915 122.907 29.7907 122.208 30.5013ZM119.529 30.4252C120.251 30.4252 120.834 30.1787 121.278 29.6856C121.723 29.1852 121.945 28.558 121.945 27.8038C121.945 27.0424 121.723 26.4152 121.278 25.9221C120.834 25.429 120.251 25.1825 119.529 25.1825C118.8 25.1825 118.214 25.429 117.769 25.9221C117.332 26.4152 117.113 27.0424 117.113 27.8038C117.113 28.5652 117.332 29.1925 117.769 29.6856C118.214 30.1787 118.8 30.4252 119.529 30.4252Z" fill="white"/>
</svg>
