<svg width="34" height="33" viewBox="0 0 34 33" fill="none" xmlns="http://www.w3.org/2000/svg">
<g clip-path="url(#clip0_22_36)">
<path d="M17 33C26.3888 33 34 25.6127 34 16.5C34 7.3873 26.3888 0 17 0C7.61116 0 0 7.3873 0 16.5C0 25.6127 7.61116 33 17 33Z" fill="#039BE5"/>
<path d="M7.77892 16.1425L24.1698 10.0087C24.9305 9.74192 25.5949 10.1888 25.3484 11.3053L25.3498 11.3039L22.559 24.0653C22.3522 24.97 21.7983 25.19 21.0233 24.7638L16.7733 21.7237L14.7234 23.6404C14.4968 23.8604 14.3055 24.046 13.8663 24.046L14.1681 19.8482L22.0448 12.9415C22.3876 12.6487 21.9683 12.4837 21.5163 12.7752L11.7824 18.7234L7.58625 17.4529C6.67533 17.1724 6.6555 16.5688 7.77892 16.1425Z" fill="white"/>
</g>
<defs>
<clipPath id="clip0_22_36">
<rect width="34" height="33" fill="white"/>
</clipPath>
</defs>
</svg>
