<svg width="33" height="33" viewBox="0 0 33 33" fill="none" xmlns="http://www.w3.org/2000/svg">
<g clip-path="url(#clip0_22_31)">
<path d="M16.5 33C25.6127 33 33 25.6127 33 16.5C33 7.3873 25.6127 0 16.5 0C7.3873 0 0 7.3873 0 16.5C0 25.6127 7.3873 33 16.5 33Z" fill="#4065D6"/>
<path d="M24.1095 21.2156C23.7231 21.2699 21.8451 21.2156 21.7474 21.2156C21.2619 21.2206 20.794 21.0342 20.4448 20.6968C20.0475 20.3146 19.6893 19.8935 19.3093 19.4962C19.194 19.375 19.0699 19.2626 18.9381 19.1596C18.6276 18.923 18.3215 18.9773 18.1761 19.342C18.0621 19.7373 17.9837 20.142 17.9416 20.5513C17.9348 20.7237 17.8599 20.8863 17.7333 21.0036C17.6067 21.1208 17.4388 21.183 17.2664 21.1766C17.0102 21.1896 16.754 21.1961 16.5 21.1896C15.576 21.1848 14.6662 20.9616 13.8448 20.5383C12.9581 20.0428 12.1852 19.3668 11.5761 18.5539C10.6014 17.267 9.75914 15.885 9.06197 14.4289C9.02507 14.3551 8.29342 12.7985 8.27605 12.7268C8.23069 12.6248 8.22636 12.5093 8.26396 12.4041C8.30156 12.299 8.3782 12.2124 8.47796 12.1623C8.60822 12.1124 11.0203 12.1623 11.0593 12.1623C11.239 12.1606 11.4144 12.2164 11.5601 12.3214C11.7058 12.4265 11.8141 12.5754 11.8691 12.7464C12.3152 13.8836 12.9244 14.9499 13.6776 15.9118C13.7827 16.0414 13.9063 16.1548 14.0445 16.2483C14.0802 16.2826 14.1243 16.3069 14.1725 16.3185C14.2206 16.3301 14.2709 16.3286 14.3183 16.3142C14.3657 16.2998 14.4083 16.2731 14.4419 16.2367C14.4755 16.2002 14.4987 16.1555 14.5091 16.1071C14.6046 15.7932 14.6607 15.4687 14.6763 15.141C14.6893 14.4897 14.6763 14.0555 14.6394 13.4042C14.6525 13.1822 14.5776 12.9641 14.4309 12.797C14.2841 12.6299 14.0775 12.5275 13.8557 12.5119C13.6646 12.4793 13.6386 12.323 13.771 12.1667C14.025 11.8432 14.3767 11.7911 14.7588 11.7716C15.3363 11.739 15.916 11.7716 16.4957 11.7716H16.6216C16.8761 11.7709 17.13 11.7964 17.3793 11.8475C17.5251 11.8774 17.6573 11.9536 17.7563 12.0647C17.8552 12.1758 17.9157 12.3159 17.9286 12.4641C17.9578 12.6282 17.9709 12.7947 17.9676 12.9613C17.9524 13.6712 17.9177 14.3812 17.909 15.0933C17.9038 15.3745 17.9293 15.6555 17.985 15.9313C18.0697 16.3091 18.328 16.4046 18.5929 16.1289C18.923 15.7746 19.2256 15.3957 19.4982 14.9956C19.9884 14.267 20.3921 13.4837 20.701 12.6617C20.8682 12.2405 20.9963 12.1471 21.45 12.1471H24.0097C24.1624 12.1446 24.3146 12.1651 24.4613 12.2079C24.513 12.2217 24.5614 12.246 24.6033 12.2793C24.6453 12.3126 24.68 12.3541 24.7052 12.4013C24.7305 12.4486 24.7457 12.5005 24.7501 12.5538C24.7544 12.6072 24.7477 12.6609 24.7305 12.7116C24.5808 13.2563 24.3239 13.7655 23.9749 14.2096C23.4539 14.9456 22.9068 15.6643 22.3727 16.3807C22.3051 16.4744 22.2435 16.5723 22.1882 16.6738C21.9884 17.0342 22.0036 17.2383 22.2924 17.5422C22.757 18.0198 23.2541 18.4693 23.7014 18.9599C24.0312 19.3174 24.3291 19.7032 24.5915 20.1127C24.9215 20.6425 24.7196 21.1288 24.1095 21.2156Z" fill="white"/>
</g>
<defs>
<clipPath id="clip0_22_31">
<rect width="33" height="33" fill="white"/>
</clipPath>
</defs>
</svg>
